# xmcd
#
# Track frame offsets:
# 150
# 16085
# 27575
# 41488
# 55138
# 75485
# 88148
# 97573
# 113688
# 131448
# 141985
# 163550
# 179523
# 196988
# 210513
# 222000
# 239413
# 256973
#
# Disc length: 3699 seconds
#
#
# Revision: 0
# Processed by: cddbd v1.5.1PL0 Copyright (c) Steve Scherf et al.
# Submitted via: FreeRIP 2.80 
#
DISCID=e90e7112
DTITLE=Willie Nelson - Greatest Hits and Finest Preformances Disc 1
DYEAR=1986
DGENRE=Country
TTITLE0=To All the Girls I've Loved Before
TTITLE1=On The Road Again
TTITLE2=My Heroes Have Always Been Cowboys
TTITLE3=Heartbreak Hotel
TTITLE4=Angel Flying too Close to the Ground
TTITLE5=Forgiving You Was Easy
TTITLE6=If You've got the Money, I've Got the Time
TTITLE7=Blue Skies
TTITLE8=Georgia on my Mind
TTITLE9=Blue Eyes Crying In the Rain
TTITLE10=Pancho and Lefty
TTITLE11=Always on My Mind
TTITLE12=Stardust
TTITLE13=I'm Gonna SIt Right Down
TTITLE14=Mona Lisa
TTITLE15=As Time Goes By
TTITLE16=All of Me
TTITLE17=September Song
EXTD=
EXTT0=
EXTT1=
EXTT2=
EXTT3=
EXTT4=
EXTT5=
EXTT6=
EXTT7=
EXTT8=
EXTT9=
EXTT10=
EXTT11=
EXTT12=
EXTT13=
EXTT14=
EXTT15=
EXTT16=
EXTT17=
PLAYORDER=
